<?xml version="1.0" encoding="utf-8"?>
<!-- Generator: Adobe Illustrator 22.1.0, SVG Export Plug-In . SVG Version: 6.00 Build 0)  -->
<svg version="1.1" id="Layer_1" xmlns="http://www.w3.org/2000/svg" xmlns:xlink="http://www.w3.org/1999/xlink" x="0px" y="0px"
	 viewBox="0 0 578.9 126.1" style="enable-background:new 0 0 578.9 126.1;" xml:space="preserve">
<style type="text/css">
	.st0{fill:#FFFFFF;}
</style>
<title>logo-parity-substrate-4</title>
<g id="Layer_2_2_">
	<g id="Layer_1-2_1_">
		<g id="Variation-2_1_">
			<g id="Logotype_1_">
				<g id="Group-3_1_">
					<g>
						<path id="Fill-1_1_" class="st0" d="M124.7,81.5c-1.2,0-2.4,0.1-3.6,0.2c-3.3,0.4-5.8,3.2-5.8,6.6v14.1c0,3.4,2.8,6.2,6.8,6.5
							c0.9,0.1,1.8,0.1,2.7,0.1s1.6,0,2.4-0.1c4.1-0.3,6.5-2.6,7-6.3c0.5-4.9,0.5-9.9,0-14.8c-0.2-3.1-2.6-5.6-5.7-6
							C127.2,81.5,125.9,81.5,124.7,81.5z M114.4,126.1c-1.8,0-5.2-1-5.2-4.7V86.3c0-3.5,2.7-6.6,4.4-7.8c2.1-1.2,4.5-2,6.9-2.3
							c1.5-0.2,3.1-0.3,4.6-0.3c1.8,0,3.5,0.2,5.3,0.6c5.1,1.2,8.3,4.5,9.3,9.8c0.2,1.4,0.4,2.7,0.4,4.1v1.3c0,3,0.1,6.1,0,9.2
							c-0.1,1.9-0.5,3.8-1.1,5.5c-1.5,4.2-4.7,6.7-9.4,7.6c-1.3,0.2-2.7,0.4-4.1,0.4c-1.2,0-2.4-0.1-3.5-0.2
							c-2.7-0.2-5.3-1.7-6.9-3.9V126L114.4,126.1z"/>
					</g>
				</g>
				<g id="Group-6_1_">
					<g>
						<path id="Fill-4_1_" class="st0" d="M254.7,125.9c-0.2,0-0.5,0-0.7,0l-0.9-0.1l5.2-12.5c0.5-1,0.7-2.1,0.5-3.1
							c-3.1-7.8-6.1-15.2-9.2-22.8l-3-7.4c-0.5-1.3-0.8-2.3-0.4-2.9c0.5-0.6,1.4-0.7,2.8-0.7c1.4-0.1,2.7,0.9,3,2.3
							c0.7,1.8,8.8,22.2,10.3,25.9l10.3-25.7c0.4-1.5,1.8-2.6,3.4-2.7c0.6,0,1.1,0.1,1.6,0.4c0.8,0.2,1.3,1,1.1,1.8
							c0,0.1,0,0.1,0,0.2l-17.4,43C260.4,124.2,257.7,126,254.7,125.9"/>
					</g>
				</g>
				<path id="Fill-7_1_" class="st0" d="M161.5,96.6c-2.3,0-4.3,0.1-5.8,0.2c-3.8,0.3-5.2,1.7-5.3,5.2c0,0.8,0,1.5,0,2.1
					c-0.1,2.5,2,4.6,4.5,4.7c0.1,0,0.2,0,0.3,0c1.1,0,1.9,0.1,2.8,0.1s1.7,0,2.5-0.1c3.1-0.1,5.9-1.8,7.6-4.4
					c1.1-1.7,1.1-3.6,1.1-5.7c0-0.3,0-0.7,0-1c0-0.3,0-0.5,0-0.8c-0.3-0.1-0.6-0.1-0.9-0.1C166.4,96.7,163.9,96.6,161.5,96.6z
					 M174.2,114.4c-1.7,0-5-1-5-4.7v-0.2l-0.1,0.1c-2.2,3-5.7,4.7-9.4,4.8c-0.5,0-1.1,0-1.6,0c-1.7,0-3.3-0.1-4.9-0.4
					c-3.9-0.5-7-3.3-8-7c-0.8-2.7-0.8-5.6,0-8.3c0.9-3.7,4-6.4,7.8-6.7c3-0.3,5.9-0.5,8.9-0.5c2.3,0,4.5,0.1,6.5,0.2h0.4
					c0.1,0,0.3,0,0.4-0.1c0-0.3,0-0.7,0-1c-0.1-1.9-0.3-3.8-0.6-5.7c-0.3-1.7-1.5-2.7-3.6-3.2c-1.4-0.3-2.7-0.5-4.1-0.5
					c-3.6-0.1-7.2,1.3-9.7,4c-0.5,0.7-1.2,1.2-2,1.3c-0.3,0-0.6-0.1-0.8-0.2c-0.8-0.5-1.6-1.1-2.3-1.8c-0.4-0.4-0.6-1.1,0.2-2.3
					c1.9-2.4,4.5-4.3,7.5-5.3c2.3-0.7,4.7-1.1,7.2-1c1.9,0,3.8,0.2,5.7,0.6c3.8,0.6,6.7,3.5,7.6,7.2c0.4,1.7,0.6,3.5,0.6,5.2
					c0.3,6.8,0,24.5,0,24.7v0.7L174.2,114.4z"/>
				<path id="Fill-9_1_" class="st0" d="M187.7,114.4c-1.8,0-5.1-1-5.1-4.6V76.1h0.7c1.8,0,5.2,0.9,5.2,4.4v0.1h0.1
					c1-1,2.1-1.9,3.3-2.7c2-1.2,4.2-1.7,6.5-1.7c0.8,0,1.5,0.1,2.3,0.1c1.2,0.1,2.4,0.4,3.5,0.8c0.9,0.2,1.5,1.1,1.3,2
					c0,0.1,0,0.2-0.1,0.2c-0.2,0.6-0.4,1.1-0.8,1.6V81c-0.3,0.6-0.8,1-1.5,1c-0.4,0-0.8-0.1-1.1-0.2c-1.2-0.3-2.5-0.4-3.7-0.4
					c-1.4,0-2.9,0.2-4.2,0.8c-1.1,0.5-2.2,1.1-3.3,1.8c-1.6,1-2.4,2.8-2.3,4.7c0,3.7,0,8.6,0,13.4c0,4.4,0,8.7,0,11.8v0.7
					L187.7,114.4z"/>
				<path id="Fill-11_1_" class="st0" d="M215.2,113.9c-1.8,0-5.1-0.9-5.1-4.2V76h0.7c2.8-0.1,5,2.1,5.1,4.9c0,0.1,0,0.1,0,0.2v32.8
					L215.2,113.9z"/>
				<path id="Fill-13_1_" class="st0" d="M232.6,113.9c-1.7,0-4.9-0.9-4.9-4.2V82.2h-4.3c-0.9,0-1.3-1-1.3-1.7v-2.8
					c0-0.7,0.4-1.1,1.3-1.1h4.3V66.2h0.7c1.7,0,4.9,0.6,4.9,4.2v6.2h8.3c1.2,0,1.5,0.6,1.5,1.1v2.8c0,0.8-0.6,1.6-1.5,1.7h-8.3v31.7
					H232.6z"/>
				<path id="Fill-15_1_" class="st0" d="M212.9,68.7c-2.2,0-4-1.8-4-4c0-2.2,1.8-4,4-4c2.2,0,4,1.8,4,4
					C217,66.9,215.2,68.7,212.9,68.7"/>
			</g>
		</g>
		<path class="st0" d="M332.9,103.3c0,7.7-5.9,10.7-12.6,10.7h-3c-6.8,0-11.2-3.4-12.3-9.2c-0.1-0.7,0.2-1.1,1-1.1h1.9
			c0.6,0,1,0.4,1,1c0,0,0,0,0,0c1,4,3.6,5.7,8.5,5.7h3c5,0,9-1.6,9-7.1c0-5.6-4.8-6.2-10.3-6.8c-8-0.9-13.4-2.3-13.4-10.3
			c0-7.1,4.8-9.9,12.1-9.9h2.2c6.9,0,11.6,3.1,11.9,9.9c0,0.7-0.2,1.1-1,1.1h-1.6c-0.6,0-1.1-0.4-1.1-1c0,0,0-0.1,0-0.1
			c-0.4-4.4-3.1-6.5-8.2-6.5h-1.9c-5.3,0-8.6,1.6-8.6,6.6c0,5.3,3.9,6.2,9.7,6.9C326.6,94.1,332.9,95,332.9,103.3z"/>
		<path class="st0" d="M340.4,100.8V77.7c-0.1-0.5,0.3-1,0.8-1.1c0.1,0,0.2,0,0.3,0h1.4c0.5-0.1,1,0.3,1.1,0.8c0,0.1,0,0.2,0,0.3
			v22.9c0,6.5,1.5,9.8,8.2,9.8h1.2c4.4,0.1,8.5-2.1,10.9-5.8V77.7c-0.1-0.5,0.3-1,0.8-1.1c0.1,0,0.2,0,0.3,0h1.4
			c0.5-0.1,1,0.3,1.1,0.8c0,0.1,0,0.2,0,0.3v34.9c0.1,0.5-0.3,1-0.8,1.1c-0.1,0-0.2,0-0.3,0h-1.4c-0.5,0.1-1-0.3-1.1-0.8
			c0-0.1,0-0.2,0-0.3v-4.7c-2.6,3.8-6.9,6.1-11.5,6.1h-0.6C343.5,113.9,340.4,109.4,340.4,100.8z"/>
		<path class="st0" d="M406.4,89.7v10.6c0,8.7-5.4,13.7-13.1,13.7h-2.7c-5.6,0-8.6-2.3-10.1-6.1v4.6c0.1,0.5-0.3,1.1-0.8,1.1
			c-0.1,0-0.2,0-0.3,0h-1.4c-0.5,0.1-1.1-0.3-1.1-0.8c0-0.1,0-0.2,0-0.3V62.8c-0.1-0.5,0.3-1,0.8-1.1c0.1,0,0.2,0,0.3,0h1.4
			c0.5-0.1,1,0.3,1.1,0.8c0,0.1,0,0.2,0,0.3v19.1c1.5-3.7,4.5-5.7,10.1-5.7h2.7C400.9,76.2,406.4,80.9,406.4,89.7z M402.7,90
			c0-6.9-3.4-10.2-9.6-10.2H390c-6.2,0-9.6,3.3-9.6,10.2v10.7c0,6.4,3.4,9.8,9.6,9.8h3.1c6.2,0,9.6-3.4,9.6-9.8V90z"/>
		<path class="st0" d="M440.6,103.3c0,7.7-5.9,10.7-12.6,10.7h-3c-6.8,0-11.2-3.4-12.3-9.2c-0.1-0.7,0.2-1.1,1-1.1h1.9
			c0.6,0,1,0.4,1,1c0,0,0,0,0,0c1,4,3.6,5.7,8.5,5.7h3c5,0,9-1.6,9-7.1c0-5.6-4.8-6.2-10.3-6.8c-8-0.9-13.4-2.3-13.4-10.3
			c0-7.1,4.8-9.9,12.1-9.9h2.2c6.9,0,11.6,3.1,11.9,9.9c0,0.7-0.2,1.1-1,1.1h-1.6c-0.6,0-1.1-0.4-1.1-1c0,0,0-0.1,0-0.1
			c-0.4-4.4-3.1-6.5-8.2-6.5h-1.9c-5.3,0-8.6,1.6-8.6,6.6c0,5.3,3.9,6.2,9.7,6.9C434.3,94.1,440.6,95,440.6,103.3z"/>
		<path class="st0" d="M455,80v22c0,5.9,1.4,8.2,6.4,8.4c0.7-0.1,1,0.5,1,1.1l0,1.2c0,0.5-0.4,1-0.9,1c0,0-0.1,0-0.1,0
			c-7.3-0.1-9.9-3.9-9.9-11.7V80h-4c-0.5,0.1-1.1-0.3-1.1-0.8c0-0.1,0-0.2,0-0.3v-1.1c0-0.8,0.4-1.2,1.1-1.2h4v-4.3
			c-0.1-0.5,0.3-1,0.8-1.1c0.1,0,0.2,0,0.3,0h1.4c0.5-0.1,1,0.3,1.1,0.8c0,0.1,0,0.2,0,0.3v4.3h6.1c0.8,0,1.2,0.4,1.2,1.1v1.3
			c0.1,0.5-0.3,1.1-0.8,1.1c-0.1,0-0.2,0-0.3,0L455,80z"/>
		<path class="st0" d="M489,80.3c-1.2-0.4-2.5-0.6-3.8-0.6h-0.9c-4.4-0.1-8.5,2.2-10.9,5.9v26.9c0.1,0.5-0.3,1-0.8,1.1
			c-0.1,0-0.2,0-0.3,0h-1.4c-0.5,0.1-1-0.3-1.1-0.8c0-0.1,0-0.2,0-0.3V77.7c-0.1-0.5,0.3-1,0.8-1.1c0.1,0,0.2,0,0.3,0h1.4
			c0.5-0.1,1,0.3,1.1,0.8c0,0.1,0,0.2,0,0.3v4.7c2.7-4,7.3-6.3,12.1-6.1c1.6,0,3.2,0.2,4.8,0.6c0.5,0.1,0.9,0.7,0.7,1.2
			c0,0.1,0,0.1-0.1,0.2l-0.6,1.6c-0.2,0.5-0.7,0.8-1.2,0.6C489.1,80.4,489.1,80.3,489,80.3z"/>
		<path class="st0" d="M522.6,113.6h-2.4c-0.8,0-1.2-0.7-1.2-1.8v-4.4c-2.2,4.1-6.5,6.7-11.2,6.6h-3.4c-6.7,0-10.8-3.7-10.8-11.1
			c0-7.4,4.2-10.7,10.6-10.7H519V90c0-7.9-1.9-10.2-9.1-10.2h-1.4c-3.2-0.1-6.4,0.6-9.2,2c-0.7,0.4-1.3,0.5-1.6-0.1l-0.8-1.6
			c-0.2-0.4-0.1-0.8,0.6-1.3c3-1.9,6.9-2.6,11-2.6h1.4c9.2,0,12.7,4.2,12.7,13.7v22c0,0.4,0.1,0.8,0.1,1.1
			C522.9,113.3,523,113.6,522.6,113.6z M519.1,102.2v-6.6h-14.6c-4.6,0-7.1,1.8-7.1,7.3s2.5,7.5,7.1,7.5h3.1
			C512.9,110.7,517.6,107.3,519.1,102.2L519.1,102.2z"/>
		<path class="st0" d="M537.6,80v22c0,5.9,1.4,8.2,6.4,8.4c0.7-0.1,1,0.5,1,1.1l-0.1,1.2c0,0.5-0.4,1-0.9,1c0,0-0.1,0-0.1,0
			c-7.3-0.1-9.9-3.9-9.9-11.7V80h-4c-0.5,0.1-1.1-0.3-1.1-0.8c0-0.1,0-0.2,0-0.3v-1.1c0-0.8,0.4-1.2,1.1-1.2h4v-4.3
			c-0.1-0.5,0.3-1,0.8-1.1c0.1,0,0.2,0,0.3,0h1.4c0.5-0.1,1,0.3,1.1,0.8c0,0.1,0,0.2,0,0.3v4.3h6.2c0.8,0,1.1,0.4,1.1,1.1v1.3
			c0.1,0.5-0.3,1.1-0.8,1.1c-0.1,0-0.2,0-0.3,0L537.6,80z"/>
		<path class="st0" d="M579.2,89.7v4.7c0,1.2-1,2.3-2.3,2.3c-0.1,0-0.1,0-0.2,0h-22.5v4.4c0,6,3.4,9.4,9.6,9.4h2.5
			c5.2,0,6.6-2.2,8.9-4.9c0.5-0.6,0.8-0.7,1.6-0.2l1,0.7c0.7,0.5,0.7,1,0.2,1.6c-2.7,3.3-5.3,6.5-11.6,6.5h-2.5
			c-7.8,0-13.4-4.9-13.4-13.2V89.7c0-8.8,5.6-13.5,13.4-13.5h2.5C572.7,76.2,579.2,81,579.2,89.7z M575.4,90
			c0-6.9-3.9-10.2-9.1-10.2h-2.5c-6.2,0-9.6,3.4-9.6,10.2v3.4h21.2L575.4,90z"/>
		<polygon class="st0" points="49.9,112.7 48.4,113.5 48.6,113.7 49.9,113 49.9,114.4 99.7,85.6 99.7,82.5 49.9,111.3 		"/>
		<polygon class="st0" points="49.9,103.2 40.2,108.8 40.7,109.1 49.9,103.8 49.9,104.9 99.7,76.2 99.7,73.3 49.9,102 		"/>
		<polygon class="st0" points="49.9,93.8 32,104.1 32.7,104.5 49.9,94.5 49.9,95.5 99.7,66.7 99.7,64.1 49.9,92.8 		"/>
		<path class="st0" d="M99.7,28.1L99,27.6L59,50.7l-5.2-3l12.1-7v-1.8l26.2-15.2L91,23L66,37.4v-1.5l-16.2,9.4l-5.6-3.2l39.9-23
			L83,18.4l-39.9,23l-5.4-3.1l8.8-5.1l-1.7-1l31-17.9L75,13.8L44,31.7l-1.6-0.9l-8.9,5.1v1.8l-8.3,4.8l-0.6-0.3L0,56.4v2.4
			l26.7-15.4l-0.6-0.3l7.4-4.3v1.9l5.5,3.2l-5.8,3.3l-0.4-0.2L0,65.9V68l34.7-20l-0.4-0.2l5.8-3.3l5.6,3.3l-12.1,7V56L0,75.3v2
			l33.5-19.4v1.5l5.2,3L0,84.8v0.9l0.8,0.4l39.4-22.8l5.4,3.1l-12.1,6.9v1.6l-26.1,15l1.3,0.7l24.8-14.3v1.8l16.2-9.4l4.9,2.8
			l-4.8,2.8v0.5L15.6,94.6l1.1,0.6l33.1-19.1v0.5l6.7-3.9l5.3,3.1l-8.7,5l0.8,0.4l-4.1,2.4v0.7l-26,15l0.9,0.5l25.2-14.5V86l6.2-3.6
			l1.2,0.7l8.7-5v-1.4l33.7-19.4v-2.4L66,74.3v-0.9l-5.3-3.1l39-22.5v-2.2L58.8,69.2l-4.9-2.8l12.1-7v-1.6l33.7-19.4v-2L66,55.9
			v-1.2l-5.4-3.1l39.1-22.6V28.1z M37.6,57l12.1-7l5.2,3l-5.8,3.3l0,0L42.8,60L37.6,57z M61.9,57l-12.2,7l-5.4-3.1l5.6-3.2l0,0
			l6.5-3.8L61.9,57z"/>
		<polygon class="st0" points="17.9,38.4 67.7,9.6 67,9.2 17.2,38 16.4,37.5 0,47 0,49.6 18.7,38.8 		"/>
		<polygon class="st0" points="9.7,33.6 59.5,4.9 59,4.6 9.2,33.4 8.2,32.8 0,37.5 0,40.4 10.7,34.2 		"/>
		<polygon class="st0" points="1.5,28.9 51.3,0.2 51.1,0 1.2,28.8 0,28.1 0,28.1 0,31.2 2.7,29.6 		"/>
	</g>
</g>
</svg>
